HIERARCHY
ROOT pelvis
{
  OFFSET 0 100 0
  CHANNELS 6 Xposition Yposition Zposition Zrotation Xrotation Yrotation
  JOINT pelvis_right_femur
  {
    OFFSET -10.78128 -3.44521 -0.5502486
    CHANNELS 3 Zrotation Xrotation Yrotation
    JOINT right_femur_tibia
    {
      OFFSET -0.8047443 -44.0398 -0.1307829
      CHANNELS 3 Zrotation Xrotation Yrotation
      JOINT right_tibia_foot
      {
        OFFSET 3.006224 -47.83518 -5
        CHANNELS 3 Zrotation Xrotation Yrotation
        End Site
        {
          OFFSET 0 -5 15
        }
      }
    }
  }
  JOINT pelvis_left_femur
  {
    OFFSET 10.78128 -3.44521 -0.5502486
    CHANNELS 3 Zrotation Xrotation Yrotation
    JOINT left_femur_tibia
    {
      OFFSET 0.8047443 -44.0398 -0.1307829
      CHANNELS 3 Zrotation Xrotation Yrotation
      JOINT left_tibia_foot
      {
        OFFSET -4.370144 -48.10324 -4.275266
        CHANNELS 3 Zrotation Xrotation Yrotation
        End Site
        {
          OFFSET 0 -5 15
        }
      }
    }
  }
  JOINT pelvis_spine1
  {
    OFFSET 0 6.468898 -3.129235
    CHANNELS 3 Zrotation Xrotation Yrotation
    JOINT spine1
    {
      OFFSET 0 23.15396 4.99043
      CHANNELS 3 Zrotation Xrotation Yrotation
      JOINT spine2
      {
        OFFSET 0 20.79997 -5.064912
        CHANNELS 3 Zrotation Xrotation Yrotation
        JOINT neck
        {
          OFFSET 0 14.38658 9.616178
          CHANNELS 3 Zrotation Xrotation Yrotation
          End Site
          {
            OFFSET 0 20 0
          }
        }
      }
      JOINT right_manubrium
      {
        OFFSET -5.722621 16.35077 3.967754
        CHANNELS 3 Zrotation Xrotation Yrotation
        JOINT right_clavicle
        {
          OFFSET -13.16364 1.694482 -4.693211
          CHANNELS 3 Zrotation Xrotation Yrotation
          JOINT right_humerus
          {
            OFFSET -28.5034 -0.3100689 -2.792744
            CHANNELS 3 Zrotation Xrotation Yrotation
            JOINT right_radius
            {
              OFFSET -25.15693 0.02248979 -1.271978
              CHANNELS 3 Zrotation Xrotation Yrotation
              End Site
              {
                OFFSET -15 0 0
              }
            }
          }
        }
      }
      JOINT left_manubrium
      {
        OFFSET 5.722621 16.35077 3.967754
        CHANNELS 3 Zrotation Xrotation Yrotation
        JOINT left_clavicle
        {
          OFFSET 13.16364 1.694482 -4.693211
          CHANNELS 3 Zrotation Xrotation Yrotation
          JOINT left_humerus
          {
            OFFSET 29.39168 -1.063119 -2.237045
            CHANNELS 3 Zrotation Xrotation Yrotation
            JOINT left_radius
            {
              OFFSET 24.59957 -0.9528479 0.9047498
              CHANNELS 3 Zrotation Xrotation Yrotation
              End Site
              {
                OFFSET 15 -0 -0
              }
            }
          }
        }
      }
    }
  }
}
MOTION
Frames: 19
Frame Time: 0.0416666666667
-1003.898 107.0525 2286.729 -11.16632 -4.39728 -75.40375 -1.644992 3.093213 -5.203373 -0 51.69013 -0 -21.86161 14.45993 7.000096 -5.820721 3.123497 -16.5322 -0 12.88467 -0 1.095344 -11.64228 22.35394 -1.471925 -0.09952535 6.023563 -1.401738 9.081168 -4.426676 1.638361 21.11449 12.18545 3.456631 -19.36454 14.08903 2.376198 -18.11146 10.41478 86.36743 34.93016 -15.08753 -0 0 17.69302 -39.73157 29.40872 18.44233 5.697661 -18.78808 -2.770202 -88.61736 23.70729 18.85189 0 0 -20.0398 -0.2514843 10.70047 14.83393
-1008.014 107.5488 2288.214 -10.90936 -4.26564 -74.85096 -1.262977 -2.327354 -6.281776 -0 47.83484 -0 -21.21049 11.29908 6.633243 -5.761594 6.58712 -16.85923 -0 11.00153 -0 3.059044 -12.51554 22.2228 -1.562646 -0.1922853 5.552846 -1.182654 9.322238 -4.883087 1.626239 21.2885 11.57852 3.094824 -18.6434 13.52856 2.564852 -17.4596 10.397 87.27519 34.45972 -16.41944 -0 0 16.45107 -38.16282 28.66861 17.63993 5.745762 -19.27463 -3.274272 -87.43804 23.45514 16.97782 0 0 -21.15818 -0.1138894 10.60102 14.60535
-1011.924 107.5519 2289.62 -10.25389 -4.214857 -74.38275 -1.028669 -6.907796 -7.451358 -0 41.1663 -0 -19.90318 7.393866 6.120433 -5.800284 9.361089 -16.97192 -0 9.214622 -0 4.83542 -13.54401 21.78579 -1.666333 -0.2904534 5.102176 -0.9496435 9.576727 -5.353704 1.620034 21.42928 10.96704 2.777948 -17.9896 12.94971 2.75447 -16.85859 10.38002 88.13771 34.01452 -17.72574 -0 0 15.24107 -36.59031 27.89457 16.83287 5.792516 -19.76569 -3.731451 -86.33464 23.19088 15.18292 0 0 -22.21447 0.03170967 10.48267 14.37719
-1015.759 107.0676 2290.992 -9.381568 -4.241419 -74.00889 -0.929267 -10.44545 -8.680772 -0 33.42955 -0 -18.39779 3.808843 5.698616 -5.931396 11.49923 -16.86683 -0 7.90755 -0 5.903484 -14.83036 21.00282 -1.777783 -0.3893021 4.695891 -0.7105944 9.835446 -5.815695 1.614833 21.52871 10.38453 2.51955 -17.44403 12.37754 2.940666 -16.34356 10.37045 88.9062 33.61312 -18.93879 -0 0 14.12176 -35.09847 27.11427 16.07374 5.829358 -20.23284 -4.12582 -85.36767 22.92531 13.57854 0 0 -23.14979 0.1719491 10.34527 14.17126
-1019.611 106.1879 2292.355 -8.519372 -4.293758 -73.71416 -0.8712381 -13.02318 -9.919826 -0 26.22503 -0 -17.0659 1.149565 5.449282 -6.082531 13.15671 -16.58024 -0 7.351683 -0 6.004433 -16.31113 19.88791 -1.892319 -0.4859443 4.354139 -0.4744226 10.08668 -6.246218 1.602344 21.58252 9.870867 2.329861 -17.04833 11.84318 3.11673 -15.94765 10.37376 89.5451 33.28971 -20.00162 -0 0 13.14742 -33.78405 26.37215 15.42169 5.849197 -20.65051 -4.442845 -84.58849 22.67468 12.26826 0 0 -23.91278 0.2961905 10.19495 14.00457
-1023.539 105.0545 2293.717 -7.838724 -4.312348 -73.47264 -0.7543851 -14.89276 -11.11349 -0 20.51667 -0 -16.13337 -0.4230451 5.366374 -6.177425 14.47565 -16.15832 -0 7.691992 -0 5.214548 -17.80039 18.50946 -2.007067 -0.5795103 4.089184 -0.2496651 10.3179 -6.625575 1.573753 21.59303 9.461669 2.211951 -16.83286 11.37718 3.275926 -15.69448 10.3935 90.0358 33.08639 -20.8744 -0 0 12.35825 -32.73434 25.72008 14.92868 5.846382 -20.99884 -4.672951 -84.02989 22.45708 11.32751 0 0 -24.46587 0.396602 10.04599 13.88725
-1027.587 103.8195 2295.084 -7.407091 -4.255214 -73.26121 -0.5165734 -16.34097 -12.20859 -0 16.54617 -0 -15.66975 -1.028544 5.419669 -6.17403 15.53154 -15.62643 -0 8.957014 -0 3.858019 -19.08029 16.98199 -2.12208 -0.6706858 3.902949 -0.0426363 10.51701 -6.940428 1.523072 21.56965 9.178748 2.160855 -16.80901 11.00294 3.412479 -15.59263 10.43004 90.37795 33.04169 -21.53894 -0 0 11.77354 -32.00464 25.20343 14.62537 5.817379 -21.26559 -4.812381 -83.7012 22.29044 10.7875 0 0 -24.78915 0.4685372 9.919358 13.8209
-1031.797 102.6186 2296.458 -7.201555 -4.105683 -73.06752 -0.1381523 -17.5859 -13.15047 -0 14.04894 -0 -15.62041 -0.8904319 5.575104 -6.069461 16.33834 -14.98078 -0 11.09662 -0 2.342023 -19.976 15.44217 -2.240426 -0.7607798 3.78768 0.1435858 10.67278 -7.185155 1.449027 21.52628 9.02711 2.166284 -16.96997 10.7337 3.520617 -15.63577 10.47972 90.58685 33.18029 -21.99822 -0 0 11.39255 -31.6077 24.84979 14.51428 5.761866 -21.44611 -4.860944 -83.59084 22.19233 10.63305 0 0 -24.87991 0.5107495 9.837519 13.79872
-1036.208 101.5596 2297.848 -7.154556 -3.868155 -72.89204 0.378023 -18.72607 -13.8769 -0 12.55967 -0 -15.86248 -0.226093 5.789967 -5.88506 16.875 -14.19909 -0 14.03533 -0 1.016012 -20.37906 14.01633 -2.366938 -0.8507969 3.729801 0.3085446 10.77503 -7.360557 1.354814 21.47699 8.998842 2.216985 -17.29764 10.57373 3.592987 -15.80798 10.5351 90.68735 33.50787 -22.27006 -0 0 11.20294 -31.51939 24.66588 14.57327 5.683427 -21.54126 -4.818761 -83.6748 22.18013 10.81553 0 0 -24.74848 0.5248366 9.817828 13.80799
-1040.858 100.7239 2299.266 -7.197419 -3.559515 -72.74713 1.029414 -19.73707 -14.31316 -0 11.6477 -0 -16.25526 0.7898675 6.005909 -5.647555 17.10237 -13.25778 -0 17.71787 -0 0.107356 -20.22869 12.79953 -2.506215 -0.9408657 3.71511 0.452488 10.81516 -7.470852 1.246585 21.43202 9.080029 2.304424 -17.7701 10.52177 3.620123 -16.09068 10.58628 90.70624 34.01241 -22.37796 -0 0 11.19196 -31.69481 24.6428 14.7656 5.589437 -21.55468 -4.684158 -83.92617 22.26959 11.27258 0 0 -24.4126 0.5142337 9.867821 13.83354
-1045.775 100.1739 2300.72 -7.28521 -3.201557 -72.65606 1.82556 -20.49539 -14.37064 -0 11.03141 -0 -16.67005 2.017795 6.147787 -5.374881 16.96301 -12.1471 -0 22.1271 -0 -0.2771941 -19.4838 11.85493 -2.660644 -1.030032 3.733148 0.5741533 10.78701 -7.520514 1.131891 21.39558 9.256825 2.424796 -18.3659 10.57461 3.591364 -16.46765 10.62257 90.66589 34.6698 -22.34291 -0 0 11.35428 -32.08574 24.76534 15.05099 5.490399 -21.49093 -4.453328 -84.32179 22.47218 11.94481 0 0 -23.89321 0.4836691 9.984015 13.86052
-1050.973 99.95822 2302.215 -7.40378 -2.816963 -72.65256 2.782639 -20.81181 -13.95597 -0 10.59301 -0 -17.00278 3.328878 6.128797 -5.068426 16.37246 -10.88295 -0 27.26512 -0 -0.1244233 -18.11236 11.22388 -2.828856 -1.11624 3.779667 0.6691073 10.6877 -7.512101 1.018729 21.36521 9.519117 2.579609 -19.06515 10.72973 3.496557 -16.92669 10.63384 90.58076 35.45023 -22.17891 -0 0 11.69424 -32.65375 25.0208 15.39393 5.399238 -21.35518 -4.121272 -84.84506 22.79205 12.78495 0 0 -23.21285 0.4395706 10.15362 13.87567
-1056.435 100.1112 2303.746 -7.565956 -2.4297 -72.77949 3.899485 -20.46668 -13.00008 -0 10.33133 -0 -17.17998 4.579847 5.863584 -4.711482 15.21511 -9.516699 -0 33.09652 -0 0.5056281 -16.10858 10.93286 -3.004615 -1.196325 3.857214 0.7290355 10.51839 -7.445395 0.9151676 21.33238 9.861914 2.775429 -19.84878 10.98654 3.327873 -17.4586 10.61142 90.45655 36.32289 -21.89216 -0 0 12.22292 -33.37721 25.4048 15.76872 5.330707 -21.15419 -3.683466 -85.4854 23.22362 13.75997 0 0 -22.39657 0.3911142 10.35757 13.86752
-1062.108 100.6444 2305.293 -7.801303 -2.069408 -73.08343 5.121364 -19.25113 -11.50818 -0 10.28034 -0 -17.1658 5.593516 5.292088 -4.27521 13.35618 -8.14137 -0 39.45819 -0 1.485427 -13.53519 10.99128 -3.176071 -1.26594 3.97429 0.7421068 10.28475 -7.317682 0.8292752 21.2836 10.28494 3.022902 -20.69699 11.34637 3.081611 -18.05444 10.54896 90.29118 37.25766 -21.48295 -0 0 12.95163 -34.25262 25.92299 16.16177 5.300645 -20.89772 -3.138218 -86.2359 23.74978 14.84849 0 0 -21.47443 0.3510351 10.57367 13.82644
-1067.892 101.5311 2306.823 -8.139698 -1.776854 -73.60182 6.31342 -17.02072 -9.609713 -0 10.4161 -0 -16.96912 6.153685 4.411239 -3.734016 10.67843 -6.886783 -0 45.95233 -0 2.626517 -10.57433 11.38391 -3.325606 -1.319413 4.143304 0.694543 9.997406 -7.124947 0.7690124 21.20251 10.79053 3.334645 -21.58709 11.81097 2.76025 -18.70193 10.44357 90.07627 38.22349 -20.9486 -0 0 13.88355 -35.29086 26.58796 16.57222 5.324391 -20.59952 -2.490076 -87.08955 24.34078 16.03596 0 0 -20.48412 0.3350622 10.77953 13.74572
-1073.653 102.6905 2308.298 -8.588973 -1.603018 -74.34245 7.278979 -13.75946 -7.56439 -0 10.59134 -0 -16.64083 6.029269 3.298985 -3.085393 7.143206 -5.8919 -0 51.86462 -0 3.710844 -7.550559 12.06421 -3.430899 -1.349681 4.377296 0.5735745 9.671867 -6.863738 0.7417664 21.07321 11.37957 3.721225 -22.49098 12.37933 2.374846 -19.38181 10.29767 89.79837 39.18425 -20.2865 -0 0 15.00463 -36.50801 27.41091 17.01088 5.413613 -20.27674 -1.754416 -88.03486 24.95448 17.30902 0 0 -19.47206 0.3588641 10.95535 13.62433
-1079.248 103.9811 2309.689 -9.113435 -1.590711 -75.26319 7.841931 -9.631391 -5.690448 -0 10.5574 -0 -16.25275 5.040329 2.105822 -2.35467 2.857073 -5.249153 -0 56.17911 -0 4.554107 -4.87838 12.95078 -3.46814 -1.348587 4.685461 0.3717207 9.327766 -6.533436 0.753278 20.88542 12.04573 4.184862 -23.37276 13.04275 1.947205 -20.06556 10.12112 89.43999 40.09351 -19.49612 -0 0 16.27634 -37.91134 28.38838 17.49657 5.571273 -19.9472 -0.962286 -89.0514 25.53918 18.65027 0 0 -18.49084 0.4320925 11.08691 13.47136
-1084.569 105.2131 2310.984 -9.628138 -1.734324 -76.26868 7.957385 -4.985954 -4.239516 -0 10.10602 -0 -15.86801 3.150318 1.002976 -1.56166 -1.895144 -4.937362 -0 57.76003 -0 5.06823 -2.918861 13.92861 -3.417884 -1.307974 5.06821 0.09154259 8.986851 -6.138524 0.8059701 20.64059 12.7689 4.71197 -24.18811 13.77923 1.51031 -20.71619 9.932551 88.98124 40.89203 -18.57992 -0 0 17.63376 -39.48209 29.48751 18.04848 5.785943 -19.62464 -0.1629187 -90.10688 26.04038 20.03445 0 0 -17.59153 0.550941 11.16841 13.30993
-1089.584 106.1817 2312.201 -10.02125 -1.93855 -77.23839 7.765835 -0.2967705 -3.302244 -0 9.257718 -0 -15.52911 0.5203247 0.1141065 -0.6643132 -6.686621 -4.791049 -0 55.70504 -0 5.265187 -1.813377 14.86478 -3.272391 -1.221889 5.513503 -0.2511362 8.670094 -5.690276 0.8972335 20.35627 13.51086 5.26796 -24.88703 14.54928 1.105236 -21.29331 9.757993 88.40387 41.51193 -17.54464 -0 0 18.9923 -41.16062 30.63726 18.67406 6.028689 -19.31421 0.5795613 -91.15749 26.41097 21.42682 0 0 -16.81241 0.6931357 11.20402 13.17705
